<svg xmlns="http://www.w3.org/2000/svg" viewBox="0 0 24 24">    <path d="M 3.9980469 3 C 2.8980469 3 2.0097656 3.9 2.0097656 5 L 2 16.998047 C 2 18.103047 2.895 19 4 19 L 5.9980469 19 L 6 19 L 6 23 L 9.9980469 19 L 19.998047 19 C 21.098047 19 21.998047 18.1 21.998047 17 L 21.998047 5 C 21.998047 3.9 21.098047 3 19.998047 3 L 3.9980469 3 z M 3.9980469 5 L 20 5 L 20 17 L 5.9980469 17 L 4 17 L 3.9980469 5 z M 7 8 L 7 12 L 9 12 L 7 15 L 9 15 L 11 12 L 11 11 L 11 8 L 7 8 z M 13 8 L 13 12 L 15 12 L 13 15 L 15 15 L 17 12 L 17 11 L 17 8 L 13 8 z"></path></svg>
