<svg xmlns="http://www.w3.org/2000/svg" viewBox="0 0 26 26"><path d="M 8.59375 3 C 8.425781 3.019531 8.261719 3.085938 8.125 3.1875 L 2.6875 7.03125 L 2.625 7.0625 C 2.613281 7.074219 2.605469 7.082031 2.59375 7.09375 C 2.582031 7.09375 2.574219 7.09375 2.5625 7.09375 C 2.507813 7.121094 2.457031 7.152344 2.40625 7.1875 C 2.394531 7.199219 2.386719 7.207031 2.375 7.21875 C 2.363281 7.230469 2.355469 7.238281 2.34375 7.25 C 2.324219 7.257813 2.300781 7.269531 2.28125 7.28125 C 2.257813 7.3125 2.238281 7.34375 2.21875 7.375 C 2.195313 7.394531 2.175781 7.414063 2.15625 7.4375 C 2.15625 7.449219 2.15625 7.457031 2.15625 7.46875 C 2.144531 7.488281 2.132813 7.511719 2.125 7.53125 C 2.125 7.542969 2.125 7.550781 2.125 7.5625 C 2.113281 7.5625 2.105469 7.5625 2.09375 7.5625 L 0.09375 11.5625 C -0.101563 11.949219 -0.0273438 12.414063 0.277344 12.722656 C 0.585938 13.027344 1.050781 13.101563 1.4375 12.90625 L 2 12.625 L 2 22 C 2 22.550781 2.449219 23 3 23 L 18 23 C 18.011719 23 18.019531 23 18.03125 23 C 18.09375 22.996094 18.15625 22.984375 18.21875 22.96875 C 18.25 22.960938 18.28125 22.949219 18.3125 22.9375 C 18.4375 22.898438 18.554688 22.835938 18.65625 22.75 C 18.679688 22.730469 18.699219 22.710938 18.71875 22.6875 C 18.742188 22.667969 18.761719 22.648438 18.78125 22.625 L 18.84375 22.53125 C 18.867188 22.511719 18.886719 22.492188 18.90625 22.46875 L 22.78125 17.625 C 22.921875 17.449219 23 17.226563 23 17 L 23 12.4375 L 25.71875 9.71875 C 26.035156 9.386719 26.085938 8.886719 25.84375 8.5 L 23 3.78125 C 22.992188 3.761719 22.980469 3.738281 22.96875 3.71875 C 22.96875 3.707031 22.96875 3.699219 22.96875 3.6875 L 22.9375 3.625 C 22.914063 3.558594 22.882813 3.496094 22.84375 3.4375 C 22.808594 3.382813 22.765625 3.328125 22.71875 3.28125 C 22.707031 3.28125 22.699219 3.28125 22.6875 3.28125 C 22.675781 3.269531 22.667969 3.261719 22.65625 3.25 C 22.65625 3.238281 22.65625 3.230469 22.65625 3.21875 C 22.644531 3.21875 22.636719 3.21875 22.625 3.21875 C 22.613281 3.207031 22.605469 3.199219 22.59375 3.1875 C 22.574219 3.175781 22.550781 3.164063 22.53125 3.15625 C 22.519531 3.15625 22.511719 3.15625 22.5 3.15625 C 22.480469 3.132813 22.460938 3.113281 22.4375 3.09375 C 22.425781 3.09375 22.417969 3.09375 22.40625 3.09375 C 22.394531 3.082031 22.386719 3.074219 22.375 3.0625 C 22.355469 3.0625 22.332031 3.0625 22.3125 3.0625 C 22.300781 3.050781 22.292969 3.042969 22.28125 3.03125 C 22.261719 3.03125 22.238281 3.03125 22.21875 3.03125 C 22.207031 3.019531 22.199219 3.011719 22.1875 3 C 22.167969 3 22.144531 3 22.125 3 C 22.113281 3 22.105469 3 22.09375 3 C 22.074219 3 22.050781 3 22.03125 3 C 22.019531 3 22.011719 3 22 3 L 8.6875 3 C 8.65625 3 8.625 3 8.59375 3 Z M 9 5 L 19.5625 5 L 17.5625 7 L 6.15625 7 Z M 4 9 L 17 9 L 17 21 L 4 21 L 4 11.125 C 4.003906 11.082031 4.003906 11.042969 4 11 Z M 7.71875 10 C 7.167969 10.078125 6.78125 10.589844 6.859375 11.140625 C 6.9375 11.691406 7.449219 12.078125 8 12 L 13 12 C 13.359375 12.003906 13.695313 11.816406 13.878906 11.503906 C 14.058594 11.191406 14.058594 10.808594 13.878906 10.496094 C 13.695313 10.183594 13.359375 9.996094 13 10 L 8 10 C 7.96875 10 7.9375 10 7.90625 10 C 7.875 10 7.84375 10 7.8125 10 C 7.78125 10 7.75 10 7.71875 10 Z"></path></svg>
