<svg xmlns="http://www.w3.org/2000/svg" viewBox="0 0 24 24">    <path d="M 5 3 C 3.895 3 3 3.895 3 5 L 3 19 C 3 20.103 3.897 21 5 21 L 19 21 C 20.103 21 21 20.103 21 19 L 21 5 C 21 3.895 20.105 3 19 3 L 5 3 z M 5 5 L 19 5 L 19 7 L 5 7 L 5 5 z M 5 9 L 19 9 L 19 19 L 5 19 L 5 9 z M 10 10.792969 L 6.7929688 14 L 10 17.207031 L 11 16.207031 L 8.7929688 14 L 11 11.792969 L 10 10.792969 z M 14 10.792969 L 13 11.792969 L 15.207031 14 L 13 16.207031 L 14 17.207031 L 17.207031 14 L 14 10.792969 z"></path></svg>
