<svg xmlns="http://www.w3.org/2000/svg" viewBox="0 0 16 16"><path d="M 2.5 1 C 1.6774686 1 1 1.6774686 1 2.5 L 1 5.5 C 1 6.3225314 1.6774686 7 2.5 7 L 5.5 7 C 6.3225314 7 7 6.3225314 7 5.5 L 7 2.5 C 7 1.6774686 6.3225314 1 5.5 1 L 2.5 1 z M 9.5 1 C 8.6774686 1 8 1.6774686 8 2.5 L 8 5.5 C 8 6.3225314 8.6774686 7 9.5 7 L 12.5 7 C 13.322531 7 14 6.3225314 14 5.5 L 14 2.5 C 14 1.6774686 13.322531 1 12.5 1 L 9.5 1 z M 2.5 2 L 5.5 2 C 5.7814686 2 6 2.2185314 6 2.5 L 6 5.5 C 6 5.7814686 5.7814686 6 5.5 6 L 2.5 6 C 2.2185314 6 2 5.7814686 2 5.5 L 2 2.5 C 2 2.2185314 2.2185314 2 2.5 2 z M 9.5 2 L 12.5 2 C 12.781469 2 13 2.2185314 13 2.5 L 13 5.5 C 13 5.7814686 12.781469 6 12.5 6 L 9.5 6 C 9.2185314 6 9 5.7814686 9 5.5 L 9 2.5 C 9 2.2185314 9.2185314 2 9.5 2 z M 2.5 8 C 1.6774686 8 1 8.6774686 1 9.5 L 1 12.5 C 1 13.322531 1.6774686 14 2.5 14 L 5.5 14 C 6.3225314 14 7 13.322531 7 12.5 L 7 9.5 C 7 8.6774686 6.3225314 8 5.5 8 L 2.5 8 z M 9.5 8 C 8.6774686 8 8 8.6774686 8 9.5 L 8 12.5 C 8 13.322531 8.6774686 14 9.5 14 L 12.5 14 C 13.322531 14 14 13.322531 14 12.5 L 14 9.5 C 14 8.6774686 13.322531 8 12.5 8 L 9.5 8 z M 2.5 9 L 5.5 9 C 5.7814686 9 6 9.2185314 6 9.5 L 6 12.5 C 6 12.781469 5.7814686 13 5.5 13 L 2.5 13 C 2.2185314 13 2 12.781469 2 12.5 L 2 9.5 C 2 9.2185314 2.2185314 9 2.5 9 z M 9.5 9 L 12.5 9 C 12.781469 9 13 9.2185314 13 9.5 L 13 12.5 C 13 12.781469 12.781469 13 12.5 13 L 9.5 13 C 9.2185314 13 9 12.781469 9 12.5 L 9 9.5 C 9 9.2185314 9.2185314 9 9.5 9 z"></path></svg>
