<svg xmlns="http://www.w3.org/2000/svg" viewBox="0 0 24 24">    <path d="M 12 2 C 6.241 2 1.6193906 6.8668906 2.0253906 12.712891 C 2.3923906 18.001891 7.0056406 22 12.306641 22 L 13 22 C 14.105 22 15 21.105 15 20 L 15 17 C 15 15.895 15.895 15 17 15 L 20 15 C 21.105 15 22 14.105 22 13 L 22 12.306641 C 22 7.0056406 18.002844 2.3923906 12.714844 2.0253906 C 12.474844 2.0083906 12.236 2 12 2 z M 12 4 C 12.19 4 12.381219 4.0065313 12.574219 4.0195312 C 16.738219 4.3085313 20 7.9486406 20 12.306641 L 20 13 L 17 13 C 14.794 13 13 14.794 13 17 L 13 20 L 12.306641 20 C 7.9486406 20 4.3075312 16.737219 4.0195312 12.574219 C 3.8635312 10.324219 4.6194375 8.1839219 6.1484375 6.5449219 C 7.6794375 4.9039219 9.758 4 12 4 z M 12.5 5 A 1.5 1.5 0 0 0 11 6.5 A 1.5 1.5 0 0 0 12.5 8 A 1.5 1.5 0 0 0 14 6.5 A 1.5 1.5 0 0 0 12.5 5 z M 8.5 6 A 1.5 1.5 0 0 0 7 7.5 A 1.5 1.5 0 0 0 8.5 9 A 1.5 1.5 0 0 0 10 7.5 A 1.5 1.5 0 0 0 8.5 6 z M 16.5 7 A 1.5 1.5 0 0 0 15 8.5 A 1.5 1.5 0 0 0 16.5 10 A 1.5 1.5 0 0 0 18 8.5 A 1.5 1.5 0 0 0 16.5 7 z M 6.5 10 A 1.5 1.5 0 0 0 5 11.5 A 1.5 1.5 0 0 0 6.5 13 A 1.5 1.5 0 0 0 8 11.5 A 1.5 1.5 0 0 0 6.5 10 z M 10 14 A 2 2 0 0 0 8 16 A 2 2 0 0 0 10 18 A 2 2 0 0 0 12 16 A 2 2 0 0 0 10 14 z"></path></svg>
