<svg xmlns="http://www.w3.org/2000/svg" viewBox="0 0 32 32"><path d="M 5 5 L 5 27 L 16.591797 27 C 17.78536 29.923538 20.66037 32 24 32 C 28.4 32 32 28.4 32 24 C 32 20.66037 29.923538 17.78536 27 16.591797 L 27 9.5859375 L 22.414062 5 L 22 5 L 10 5 L 5 5 z M 7 7 L 10 7 L 10 13 L 22 13 L 22 7.4140625 L 25 10.414062 L 25 16.070312 C 24.67143 16.028764 24.339374 16 24 16 L 9 16 L 9 25 L 7 25 L 7 7 z M 12 7 L 16 7 L 16 9 L 18 9 L 18 7 L 20 7 L 20 11 L 12 11 L 12 7 z M 11 18 L 18.734375 18 C 17.063658 19.469014 16 21.614019 16 24 C 16 24.339374 16.028764 24.67143 16.070312 25 L 11 25 L 11 18 z M 24 18 C 27.3 18 30 20.7 30 24 C 30 27.3 27.3 30 24 30 C 20.7 30 18 27.3 18 24 C 18 20.7 20.7 18 24 18 z M 27 21.300781 L 23.699219 24.599609 L 21.400391 22.300781 L 20 23.699219 L 23.699219 27.400391 L 28.400391 22.699219 L 27 21.300781 z"></path></svg>
